<svg width="28" height="20" viewBox="0 0 28 20" fill="none" xmlns="http://www.w3.org/2000/svg">
<g filter="url(#filter0_i_645_240)">
<path d="M27.121 2.6078C26.9683 1.26845 25.7741 0.125414 24.4021 0.00553332L24.3744 0.00311825L2.86499 0L2.84276 0.00155912C1.50307 0.0949619 0.424469 0.982309 0.0948428 2.26216L0.0776144 2.329L0.0755151 2.39791C-0.0178528 5.44188 -0.00377331 8.54107 0.00987361 11.5382C0.0180863 13.3447 0.0266082 15.2127 0.0113558 17.0456L0.0111086 17.0788L0.0143815 17.1118C0.163448 18.6198 1.32646 19.7471 2.84263 19.8532L2.86493 19.8547L24.3807 19.8516L24.4145 19.848C25.8129 19.6982 26.8733 18.6909 27.116 17.2819L27.125 17.2296V2.64281L27.121 2.6078ZM18.9621 9.94407L24.6994 4.28561V15.5744L18.9621 9.94407ZM8.17359 9.91059L2.43631 15.5691V4.28032L8.17359 9.91059ZM13.8602 11.5295C13.7817 11.5827 13.6769 11.6127 13.5678 11.6127C13.459 11.6127 13.3544 11.5827 13.2764 11.5298L4.13588 2.45515H22.9999L13.8602 11.5295ZM9.94899 11.633C10.1478 11.8216 10.3456 12.0332 10.55 12.2521C11.331 13.0879 12.2162 14.0353 13.5825 14.0353C13.7693 14.0353 13.9618 14.0168 14.1545 13.9803C15.1592 13.79 15.96 12.9281 16.6664 12.1677C16.8377 11.9833 17.004 11.8043 17.1639 11.6447L22.9936 17.3996H4.13662L9.94899 11.633Z" fill="#780000"/>
</g>
<defs>
<filter id="filter0_i_645_240" x="0" y="0" width="27.125" height="19.8547" filterUnits="userSpaceOnUse" color-interpolation-filters="sRGB">
<feFlood flood-opacity="0" result="BackgroundImageFix"/>
<feBlend mode="normal" in="SourceGraphic" in2="BackgroundImageFix" result="shape"/>
<feColorMatrix in="SourceAlpha" type="matrix" values="0 0 0 0 0 0 0 0 0 0 0 0 0 0 0 0 0 0 127 0" result="hardAlpha"/>
<feOffset dx="1" dy="1"/>
<feComposite in2="hardAlpha" operator="arithmetic" k2="-1" k3="1"/>
<feColorMatrix type="matrix" values="0 0 0 0 0 0 0 0 0 0 0 0 0 0 0 0 0 0 0.25 0"/>
<feBlend mode="normal" in2="shape" result="effect1_innerShadow_645_240"/>
</filter>
</defs>
</svg>
