<svg width="15" height="17" viewBox="0 0 15 17" fill="none" xmlns="http://www.w3.org/2000/svg">
<path fill-rule="evenodd" clip-rule="evenodd" d="M15 8.49986C13.007 9.53058 9.12699 10.5114 8.1174 12.4488C7.17983 9.93572 3.28874 9.25788 2.62909 12.0194C4.21058 11.6071 5.47024 12.4647 5.66941 13.8227C5.8953 15.3619 4.81508 17.4307 2.32769 16.9212C-0.253565 16.3224 -0.590625 12.529 0.836286 10.7497C1.68965 9.66324 2.79707 8.93801 4.06539 8.50007C2.79728 8.06167 1.68965 7.33694 0.836286 6.25048C-0.590625 4.47119 -0.253565 0.677821 2.32769 0.0787763C4.81508 -0.43057 5.8953 1.63806 5.66941 3.17745C5.47024 4.53568 4.21058 5.39308 2.62935 4.98078C3.28874 7.7425 7.17983 7.06445 8.1174 4.55162C9.12724 6.48874 13.007 7.46911 15 8.49986Z" fill="#780000"/>
</svg>
