<svg width="45" height="44" viewBox="0 0 45 44" fill="none" xmlns="http://www.w3.org/2000/svg">
<g filter="url(#filter0_g_245_348)">
<path d="M22.2047 10.8553C16.1037 10.8553 11.1825 15.6271 11.1825 21.5431C11.1825 27.4591 16.1037 32.231 22.2047 32.231C28.3058 32.231 33.2269 27.4591 33.2269 21.5431C33.2269 15.6271 28.3058 10.8553 22.2047 10.8553ZM22.2047 28.4916C18.2621 28.4916 15.0389 25.3755 15.0389 21.5431C15.0389 17.7108 18.2525 14.5946 22.2047 14.5946C26.157 14.5946 29.3706 17.7108 29.3706 21.5431C29.3706 25.3755 26.1474 28.4916 22.2047 28.4916ZM36.2487 10.4181C36.2487 11.8041 35.0976 12.911 33.6778 12.911C32.2485 12.911 31.1069 11.7948 31.1069 10.4181C31.1069 9.04141 32.2581 7.92518 33.6778 7.92518C35.0976 7.92518 36.2487 9.04141 36.2487 10.4181ZM43.5489 12.9482C43.3858 9.60882 42.5992 6.65083 40.0762 4.21373C37.5629 1.77664 34.5124 1.01389 31.0686 0.846456C27.5192 0.651116 16.8807 0.651116 13.3314 0.846456C9.89711 1.00459 6.84658 1.76734 4.32365 4.20443C1.80073 6.64152 1.02371 9.59952 0.851039 12.9389C0.649589 16.3806 0.649589 26.6964 0.851039 30.1381C1.01412 33.4774 1.80073 36.4354 4.32365 38.8725C6.84658 41.3096 9.88751 42.0724 13.3314 42.2398C16.8807 42.4351 27.5192 42.4351 31.0686 42.2398C34.5124 42.0817 37.5629 41.3189 40.0762 38.8725C42.5896 36.4354 43.3762 33.4774 43.5489 30.1381C43.7503 26.6964 43.7503 16.3899 43.5489 12.9482ZM38.9635 33.8309C38.2152 35.6541 36.7667 37.0587 34.8769 37.7935C32.047 38.8818 25.332 38.6307 22.2047 38.6307C19.0775 38.6307 12.3529 38.8725 9.53258 37.7935C7.65238 37.068 6.20386 35.6634 5.44602 33.8309C4.32365 31.0869 4.58266 24.5755 4.58266 21.5431C4.58266 18.5107 4.33325 11.9901 5.44602 9.25535C6.19426 7.43218 7.64278 6.0276 9.53258 5.29275C12.3625 4.20443 19.0775 4.45558 22.2047 4.45558C25.332 4.45558 32.0566 4.21373 34.8769 5.29275C36.7571 6.0183 38.2056 7.42288 38.9635 9.25535C40.0858 11.9994 39.8268 18.5107 39.8268 21.5431C39.8268 24.5755 40.0858 31.0962 38.9635 33.8309Z" fill="#FDF0D5"/>
</g>
<defs>
<filter id="filter0_g_245_348" x="-4.88162e-05" y="-4.88162e-05" width="44.4" height="43.0863" filterUnits="userSpaceOnUse" color-interpolation-filters="sRGB">
<feFlood flood-opacity="0" result="BackgroundImageFix"/>
<feBlend mode="normal" in="SourceGraphic" in2="BackgroundImageFix" result="shape"/>
<feTurbulence type="fractalNoise" baseFrequency="1 1" numOctaves="3" seed="5826" />
<feDisplacementMap in="shape" scale="1.3999999761581421" xChannelSelector="R" yChannelSelector="G" result="displacedImage" width="100%" height="100%" />
<feMerge result="effect1_texture_245_348">
<feMergeNode in="displacedImage"/>
</feMerge>
</filter>
</defs>
</svg>
