<svg width="151" height="9" viewBox="0 0 151 9" fill="none" xmlns="http://www.w3.org/2000/svg">
<mask id="mask0_444_389" style="mask-type:luminance" maskUnits="userSpaceOnUse" x="0" y="0" width="76" height="9">
<path d="M75.2142 9H0V9.53674e-07H75.2142V9Z" fill="white"/>
</mask>
<g mask="url(#mask0_444_389)">
<path d="M75.209 -4.76837e-06C77.7695 -4.76837e-06 79.8452 2.01472 79.8452 4.5C79.8452 6.98528 77.7695 9 75.209 9C72.6485 9 70.5728 6.98528 70.5728 4.5C70.5728 2.01472 72.6485 -4.76837e-06 75.209 -4.76837e-06Z" fill="#780000"/>
<path d="M2.74445 1.8361C4.26017 1.8361 5.48891 3.02873 5.48891 4.49991C5.48891 5.9711 4.26017 7.16373 2.74445 7.16373C1.22873 7.16373 0 5.9711 0 4.49991C0 3.02873 1.22873 1.8361 2.74445 1.8361Z" fill="#780000"/>
<path d="M62.1446 9C59.5841 9 33.314 4.5 8.56445 4.5C33.3993 4.5 59.5841 -4.76837e-06 62.1446 -4.76837e-06C64.7051 -4.76837e-06 66.7808 2.01472 66.7808 4.5C66.7808 6.98528 64.7051 9 62.1446 9Z" fill="#780000"/>
</g>
<mask id="mask1_444_389" style="mask-type:luminance" maskUnits="userSpaceOnUse" x="75" y="0" width="76" height="9">
<path d="M150.429 9H75.2144V9.53674e-07H150.429V9Z" fill="white"/>
</mask>
<g mask="url(#mask1_444_389)">
<path d="M75.2197 -4.76837e-06C77.7802 -4.76837e-06 79.8559 2.01472 79.8559 4.5C79.8559 6.98528 77.7802 9 75.2197 9C72.6592 9 70.5835 6.98528 70.5835 4.5C70.5835 2.01472 72.6592 -4.76837e-06 75.2197 -4.76837e-06Z" fill="#780000"/>
<path d="M147.685 1.8361C149.201 1.8361 150.429 3.02873 150.429 4.49991C150.429 5.9711 149.201 7.16373 147.685 7.16373C146.169 7.16373 144.94 5.9711 144.94 4.49991C144.94 3.02873 146.169 1.8361 147.685 1.8361Z" fill="#780000"/>
<path d="M88.2844 9C90.8449 9 117.115 4.5 141.865 4.5C117.03 4.5 90.8449 -4.76837e-06 88.2844 -4.76837e-06C85.7239 -4.76837e-06 83.6482 2.01472 83.6482 4.5C83.6482 6.98528 85.7239 9 88.2844 9Z" fill="#780000"/>
</g>
</svg>
