<svg width="151" height="9" viewBox="0 0 151 9" fill="none" xmlns="http://www.w3.org/2000/svg">
<mask id="mask0_443_364" style="mask-type:luminance" maskUnits="userSpaceOnUse" x="0" y="0" width="76" height="9">
<path d="M75.2142 9H0V9.53674e-07H75.2142V9Z" fill="white"/>
</mask>
<g mask="url(#mask0_443_364)">
<path d="M75.209 -4.76837e-06C77.7695 -4.76837e-06 79.8452 2.01472 79.8452 4.5C79.8452 6.98528 77.7695 9 75.209 9C72.6485 9 70.5728 6.98528 70.5728 4.5C70.5728 2.01472 72.6485 -4.76837e-06 75.209 -4.76837e-06Z" fill="white"/>
<path d="M2.74445 1.83607C4.26017 1.83607 5.48891 3.0287 5.48891 4.49988C5.48891 5.97107 4.26017 7.1637 2.74445 7.1637C1.22873 7.1637 0 5.97107 0 4.49988C0 3.0287 1.22873 1.83607 2.74445 1.83607Z" fill="white"/>
<path d="M62.1446 9C59.5841 9 33.314 4.5 8.56445 4.5C33.3993 4.5 59.5841 -4.76837e-06 62.1446 -4.76837e-06C64.7051 -4.76837e-06 66.7808 2.01472 66.7808 4.5C66.7808 6.98528 64.7051 9 62.1446 9Z" fill="white"/>
</g>
<mask id="mask1_443_364" style="mask-type:luminance" maskUnits="userSpaceOnUse" x="75" y="0" width="76" height="9">
<path d="M150.429 9H75.2144V9.53674e-07H150.429V9Z" fill="white"/>
</mask>
<g mask="url(#mask1_443_364)">
<path d="M75.2197 -4.76837e-06C77.7802 -4.76837e-06 79.8559 2.01472 79.8559 4.5C79.8559 6.98528 77.7802 9 75.2197 9C72.6592 9 70.5835 6.98528 70.5835 4.5C70.5835 2.01472 72.6592 -4.76837e-06 75.2197 -4.76837e-06Z" fill="white"/>
<path d="M147.685 1.83607C149.201 1.83607 150.429 3.0287 150.429 4.49988C150.429 5.97107 149.201 7.1637 147.685 7.1637C146.169 7.1637 144.94 5.97107 144.94 4.49988C144.94 3.0287 146.169 1.83607 147.685 1.83607Z" fill="white"/>
<path d="M88.2844 9C90.8449 9 117.115 4.5 141.865 4.5C117.03 4.5 90.8449 -4.76837e-06 88.2844 -4.76837e-06C85.7239 -4.76837e-06 83.6482 2.01472 83.6482 4.5C83.6482 6.98528 85.7239 9 88.2844 9Z" fill="white"/>
</g>
</svg>
